<svg width="370" height="333" viewBox="0 0 370 333" fill="none" xmlns="http://www.w3.org/2000/svg">
<g filter="url(#filter0_dd)">
<path d="M49.4531 0.125C58.2422 0.450521 65.7292 3.70573 71.9141 9.89062C78.099 15.75 81.3542 23.0742 81.6797 31.8633V271.121C79.7266 290.652 68.9844 301.232 49.4531 302.859C40.3385 302.859 32.3633 299.93 25.5273 294.07C19.0169 287.885 15.7617 280.236 15.7617 271.121V31.8633C16.0872 22.7487 19.5052 15.2617 26.0156 9.40234C32.526 3.21745 40.3385 0.125 49.4531 0.125ZM132.949 86.0625C154.759 71.4141 184.219 56.6029 221.328 41.6289L301.406 7.44922C304.987 5.82161 308.893 4.84505 313.125 4.51953C322.24 3.86849 330.052 6.63542 336.562 12.8203C343.073 18.6797 346.328 26.3294 346.328 35.7695C346.328 46.5117 344.049 54.487 339.492 59.6953C335.26 64.5781 329.727 68.6471 322.891 71.9023L254.531 97.7812C241.185 102.99 228.49 108.198 216.445 113.406C204.727 118.289 193.984 123.986 184.219 130.496C174.453 136.355 169.245 143.029 168.594 150.516C169.245 157.677 174.453 164.35 184.219 170.535C193.984 177.046 204.727 182.905 216.445 188.113C228.49 192.996 241.185 198.042 254.531 203.25L330.703 231.082C337.539 234.337 343.073 238.569 347.305 243.777C351.862 248.66 354.141 256.473 354.141 267.215C354.141 276.655 350.885 284.467 344.375 290.652C337.865 296.512 330.052 299.116 320.938 298.465C316.706 298.139 312.799 297.163 309.219 295.535L221.328 259.402C184.219 244.428 154.596 229.617 132.461 214.969C110.651 199.995 99.5833 178.51 99.2578 150.516C99.5833 122.521 110.814 101.036 132.949 86.0625Z" fill="#FF8A00"/>
</g>
<defs>
<filter id="filter0_dd" x="0.761719" y="0.125" width="368.379" height="332.734" filterUnits="userSpaceOnUse" color-interpolation-filters="sRGB">
<feFlood flood-opacity="0" result="BackgroundImageFix"/>
<feColorMatrix in="SourceAlpha" type="matrix" values="0 0 0 0 0 0 0 0 0 0 0 0 0 0 0 0 0 0 127 0"/>
<feOffset dy="4"/>
<feGaussianBlur stdDeviation="2"/>
<feColorMatrix type="matrix" values="0 0 0 0 0 0 0 0 0 0 0 0 0 0 0 0 0 0 0.25 0"/>
<feBlend mode="normal" in2="BackgroundImageFix" result="effect1_dropShadow"/>
<feColorMatrix in="SourceAlpha" type="matrix" values="0 0 0 0 0 0 0 0 0 0 0 0 0 0 0 0 0 0 127 0"/>
<feOffset dy="15"/>
<feGaussianBlur stdDeviation="7.5"/>
<feColorMatrix type="matrix" values="0 0 0 0 0.995833 0 0 0 0 0 0 0 0 0 0 0 0 0 0.25 0"/>
<feBlend mode="normal" in2="effect1_dropShadow" result="effect2_dropShadow"/>
<feBlend mode="normal" in="SourceGraphic" in2="effect2_dropShadow" result="shape"/>
</filter>
</defs>
</svg>
